<svg width="158" height="40" viewBox="0 0 158 40" fill="none" xmlns="http://www.w3.org/2000/svg">
<path d="M57.6967 9.46584L57.2057 12.3793C56.4581 10.5709 54.6503 9.15329 51.7824 9.15329C47.0398 9.15329 42.6096 13.2053 41.5383 19.6796C40.4671 26.1539 43.547 30.284 48.245 30.284C52.9429 30.284 53.4005 28.8887 54.7842 27.0804L54.2597 29.9938H60.174L63.611 9.45468H57.6967V9.46584ZM56.0117 19.7242C55.4649 23.006 53.1661 24.8032 50.9231 24.8032C48.6802 24.8032 47.0175 22.9614 47.5642 19.6796C48.0887 16.3978 50.4098 14.6341 52.6193 14.6341C54.8735 14.6453 56.5696 16.4424 56.0229 19.7242H56.0117Z" fill="url(#paint0_linear_4858_2497)"/>
<path d="M74.7827 9.26489C69.9396 9.26489 66.7481 11.9551 66.7481 15.6052C66.7481 22.3139 76.3003 21.2423 76.3003 24.1892C76.3003 27.1362 75.1174 25.8748 73.7337 25.8748C72.35 25.8748 70.9663 24.926 71.0667 23.3744H65.3532C64.7283 27.538 68.2992 30.4068 73.2762 30.4068C78.2532 30.4068 81.9357 28.085 81.9357 24.033C81.9357 17.6926 72.3388 18.5075 72.3388 15.4824C72.3388 12.4574 73.3097 13.8304 74.6153 13.8304C75.9209 13.8304 77.3158 14.7792 77.2154 16.2527H82.6164C82.9288 12.2899 79.8935 9.26489 74.7938 9.26489H74.7827Z" fill="url(#paint1_linear_4858_2497)"/>
<path d="M99.8678 9.34306C97.2008 9.34306 94.9243 10.5598 93.4625 12.29L95.0248 2.86877H89.1104L84.5798 30.1166H90.4942L92.3689 18.8871V18.9652C92.8153 16.1746 94.5226 14.623 96.7991 14.623C99.0755 14.623 100.236 16.1746 99.7674 18.9652L97.8926 30.1278H103.773L105.782 18.128C106.72 12.6025 104.264 9.36539 99.8678 9.36539V9.34306Z" fill="url(#paint2_linear_4858_2497)"/>
<path d="M107.902 30.1054H113.817L117.209 9.56631H111.295L107.902 30.1054Z" fill="url(#paint3_linear_4858_2497)"/>
<path d="M131.237 9.56632H128.045L128.079 9.38771C128.425 7.21101 129.362 6.47429 131.616 6.63056L132.487 1.29486C126.673 0.95998 123.135 3.61667 122.198 8.98586L122.097 9.56632H119.944L119.073 14.8016H121.227L118.705 30.1166H124.664L127.186 14.8016H130.378L131.248 9.58864L131.237 9.56632Z" fill="url(#paint4_linear_4858_2497)"/>
<path d="M147.327 9.56631L140.754 22.4144L138.399 9.56631H131.827L136.402 29.4134L130.242 39.8615H136.603L153.743 9.56631H147.338H147.327Z" fill="url(#paint5_linear_4858_2497)"/>
<path d="M31.8083 14.6453C33.4376 14.6453 34.2633 15.5606 34.5088 17.0117H40.8137C40.624 12.9486 38.5819 10.303 35.1337 9.52166C35.2342 8.50587 35.3458 7.25566 35.3458 7.25566H33.5268L33.2813 9.29841C33.1251 9.29841 32.9689 9.28725 32.7903 9.28725C32.1096 9.28725 31.4512 9.35422 30.804 9.46585C30.9044 8.48354 31.016 7.26682 31.016 7.26682H29.1971L28.8623 10.0017C25.0571 11.4305 22.178 14.9578 21.3746 19.8694C20.4818 25.1381 22.5016 28.7882 26.2957 29.9938L26.0167 32.7844C26.0167 32.7844 27.7464 32.8514 27.8803 32.7844C27.925 32.751 28.0589 31.2552 28.1593 30.3733C28.5387 30.418 28.907 30.4403 29.3087 30.4403C29.7104 30.4403 30.1568 30.4068 30.5808 30.3622L30.3465 32.7844C30.3465 32.7844 31.9869 32.8514 32.1319 32.7844C32.1877 32.751 32.4221 31.0208 32.5337 29.9603C35.8702 28.9445 38.4926 26.3548 39.8764 22.7046H33.538C32.8126 24.2116 31.7302 25.0711 30.101 25.0711C28.4718 25.0711 26.809 23.3074 27.4005 19.8805C27.9361 16.409 29.6658 14.6453 31.786 14.6453H31.8083Z" fill="url(#paint6_linear_4858_2497)"/>
<path d="M19.1536 27.2366C14.0204 27.0246 8.84259 26.9241 3.78752 26.9129C3.84331 24.6246 3.89911 22.3363 3.93258 20.0368C3.96606 17.7038 3.97722 15.3708 3.97722 13.0379C9.80227 12.7141 15.8059 12.3123 21.6979 11.6984C22.0773 11.196 22.479 10.7272 22.8919 10.2919H22.825C16.308 9.97932 8.98766 9.9235 2.47074 10.0016H1.08701C0.98658 13.3281 0.908466 16.6769 0.852671 20.0033C0.808034 23.3632 0.796875 26.7566 0.796875 30.1166L2.2922 30.0608C8.15073 29.8264 14.1655 29.5138 20.1356 29.0003C19.7562 28.4534 19.4326 27.8617 19.1536 27.2366Z" fill="url(#paint7_linear_4858_2497)"/>
<path d="M9.53481 5.14591C11.0525 5.46962 12.5478 5.77101 14.0654 6.06124C17.614 6.71983 21.3746 7.41191 25.1129 7.95888H25.8048C26.3293 7.63516 26.8537 7.3561 27.4229 7.11052C27.0881 6.9989 26.7645 6.87611 26.4185 6.77564C20.8055 4.90033 14.4448 3.092 8.74252 1.61854L7.34763 1.26134C6.71156 3.60548 6.07549 5.9831 5.4729 8.34957L8.776 8.28259C9.03266 7.22215 9.30047 6.18403 9.54597 5.12358L9.53481 5.14591Z" fill="url(#paint8_linear_4858_2497)"/>
<path d="M19.11 16.8889C18.9203 16.7773 18.7083 16.688 18.4851 16.6322C16.8782 16.1745 15.2266 17.1792 14.7914 18.887C14.3562 20.5949 15.3159 22.3586 16.9117 22.8163C17.3692 22.9502 17.8156 22.9502 18.2731 22.8609C18.2396 21.7893 18.3289 20.6172 18.5297 19.4117C18.6637 18.5522 18.8645 17.7038 19.11 16.9001V16.8889Z" fill="url(#paint9_linear_4858_2497)"/>
<path d="M6.89004 34.816C8.40768 34.4923 9.903 34.1909 11.4206 33.9007C14.9692 33.2421 18.7299 32.55 22.4682 32.0031H23.16C23.6845 32.3268 24.209 32.6058 24.7781 32.8514C24.4433 32.963 24.1197 33.0858 23.7738 33.1863C18.1607 35.0616 11.8 36.8699 6.09774 38.3434L4.70285 38.7118C4.06679 36.3676 3.43072 33.99 2.82812 31.6235L6.13122 31.6793C6.38788 32.7286 6.6557 33.7779 6.9012 34.8272L6.89004 34.816Z" fill="url(#paint10_linear_4858_2497)"/>
<path d="M115.445 1.2502C113.626 1.2502 112.186 2.55622 111.885 4.20828C111.606 5.83801 112.633 7.14403 114.452 7.14403C116.271 7.14403 117.688 5.83801 117.989 4.20828C118.268 2.55622 117.242 1.2502 115.445 1.2502Z" fill="url(#paint11_linear_4858_2497)"/>
<path d="M28.3157 37.8746L29.4762 39.7387H28.3715L27.4118 38.1313L27.1217 39.7387H26.2178L26.8762 36.0886H27.78L27.4899 37.696L29.0187 36.0886H30.0788L28.3157 37.8746Z" fill="#1A1A1A"/>
<path d="M32.0877 36.0886C32.4671 36.0886 32.7684 36.1779 32.9693 36.3453C33.1702 36.5128 33.2706 36.736 33.2706 37.0151C33.2706 37.2941 33.2706 37.1713 33.2483 37.2383C33.2036 37.4839 33.1032 37.696 32.9247 37.8858C32.7461 38.0755 32.5229 38.2095 32.2328 38.2876L32.8354 39.7387H31.8087L31.2843 38.3657H31.0722L30.8267 39.7387H29.9229L30.5812 36.0886H32.0989H32.0877ZM32.3221 37.2718C32.3221 37.216 32.3221 37.1825 32.3221 37.1602C32.3221 37.0486 32.2886 36.9593 32.2105 36.9034C32.1435 36.8365 32.0319 36.8141 31.898 36.8141H31.3401L31.1727 37.7295H31.7306C31.898 37.7295 32.0319 37.6848 32.1212 37.6067C32.2216 37.5285 32.2886 37.4169 32.3109 37.2718H32.3221Z" fill="#1A1A1A"/>
<path d="M37.21 36.0886L35.4915 38.5332L35.2683 39.7388H34.3644L34.5876 38.5332L33.7395 36.0886H34.7661L35.2125 37.6179L36.2057 36.0886H37.2211H37.21Z" fill="#1A1A1A"/>
<path d="M40.2 37.2607C40.1666 37.4727 40.0773 37.6625 39.9545 37.8411C39.8206 38.0197 39.6421 38.1537 39.4189 38.2653C39.1957 38.3769 38.9279 38.4216 38.6266 38.4216H38.0687L37.8343 39.7276H36.9304L37.5888 36.0774H39.0618C39.4524 36.0774 39.7425 36.1667 39.9434 36.3342C40.1442 36.5016 40.2447 36.7249 40.2447 37.0151C40.2447 37.3053 40.2447 37.1825 40.2224 37.2495L40.2 37.2607ZM38.6824 37.7295C39.0172 37.7295 39.218 37.5732 39.285 37.2607C39.285 37.2048 39.285 37.1602 39.285 37.1379C39.285 37.0262 39.2515 36.9369 39.1734 36.8811C39.1064 36.8142 38.9949 36.7918 38.8498 36.7918H38.3588L38.1914 37.7295H38.6824Z" fill="#1A1A1A"/>
<path d="M43.5594 36.0886L43.4367 36.7918H42.4435L41.919 39.7387H41.0151L41.5396 36.7918H40.5576L40.6804 36.0886H43.5594Z" fill="#1A1A1A"/>
<path d="M45.1217 39.7722C44.8092 39.7722 44.5303 39.7053 44.2848 39.5825C44.0504 39.4597 43.8607 39.2699 43.738 39.0467C43.6041 38.8122 43.5371 38.5443 43.5371 38.243C43.5371 37.9416 43.6264 37.4393 43.8161 37.1044C44.0058 36.7695 44.2625 36.5016 44.5972 36.323C44.932 36.1332 45.3114 36.0439 45.7355 36.0439C46.1595 36.0439 46.338 36.1109 46.5724 36.2337C46.8179 36.3565 46.9964 36.5351 47.1303 36.7695C47.2643 37.0039 47.3312 37.2607 47.3312 37.562C47.3312 37.9862 47.2419 38.3769 47.0522 38.7118C46.8625 39.0467 46.6059 39.3146 46.2711 39.5043C45.9363 39.6941 45.5569 39.7834 45.1217 39.7834V39.7722ZM45.2668 38.9574C45.5011 38.9574 45.702 38.9015 45.8805 38.7788C46.0591 38.656 46.193 38.4997 46.2934 38.3099C46.3938 38.109 46.4385 37.8969 46.4385 37.6625C46.4385 37.4281 46.3715 37.216 46.2265 37.0709C46.0814 36.9258 45.8917 36.8588 45.635 36.8588C45.3784 36.8588 45.1998 36.9146 45.0101 37.0374C44.8316 37.1602 44.6977 37.3165 44.5972 37.5062C44.4968 37.696 44.4522 37.9192 44.4522 38.1537C44.4522 38.3881 44.5191 38.6002 44.6642 38.7453C44.8092 38.8904 45.0101 38.9574 45.2668 38.9574Z" fill="#1A1A1A"/>
<path d="M53.3014 36.0886L51.6722 39.7387H50.5786L50.4112 37.3388L49.3622 39.7387H48.2687L47.9785 36.0886H48.9494L49.0052 38.7453L50.1434 36.0886H51.1477L51.3039 38.7341L52.3194 36.0886H53.2903H53.3014Z" fill="#1A1A1A"/>
<path d="M55.5215 39.0913H54.1378L53.803 39.7387H52.8545L54.852 36.0886H55.9009L56.5928 39.7387H55.6331L55.5327 39.0913H55.5215ZM55.4211 38.4216L55.2091 37.0709L54.4949 38.4216H55.4211Z" fill="#1A1A1A"/>
<path d="M58.0319 39.069H59.2148L59.0921 39.7499H56.9941L57.6525 36.0997H58.5564L58.0208 39.0801L58.0319 39.069Z" fill="#1A1A1A"/>
<path d="M61.0677 36.0886L60.6772 38.2653C60.666 38.3546 60.6549 38.4216 60.6549 38.455C60.6549 38.6113 60.6995 38.7341 60.7888 38.8234C60.878 38.9015 61.012 38.9462 61.2017 38.9462C61.3914 38.9462 61.5922 38.8904 61.7261 38.7676C61.86 38.6448 61.9493 38.4774 61.9828 38.2653L62.3734 36.0886H63.2773L62.8867 38.2653C62.8309 38.6002 62.7081 38.8792 62.5296 39.1025C62.3511 39.3257 62.139 39.4932 61.8824 39.6048C61.6257 39.7164 61.3467 39.7722 61.0454 39.7722C60.7441 39.7722 60.3424 39.6718 60.1081 39.4708C59.8737 39.2699 59.751 38.9909 59.751 38.6113C59.751 38.2318 59.751 38.3769 59.7845 38.2541L60.175 36.0774H61.0789L61.0677 36.0886Z" fill="#1A1A1A"/>
<path d="M66.5909 36.0886L66.4682 36.7918H65.475L64.9505 39.7388H64.0466L64.5711 36.7918H63.5891L63.7119 36.0886H66.5909Z" fill="#1A1A1A"/>
<path d="M70.2407 36.0886L68.5222 38.5332L68.2991 39.7388H67.3952L67.6184 38.5332L66.7703 36.0886H67.7969L68.2433 37.6179L69.2364 36.0886H70.2519H70.2407Z" fill="#1A1A1A"/>
<path d="M72.7283 36.0886L72.0699 39.7388H71.166L71.8244 36.0886H72.7283Z" fill="#1A1A1A"/>
<path d="M78.8217 36.0886L78.1634 39.7387H77.2595L77.6612 37.5509L76.4337 39.7387H75.7083L75.262 37.5397L74.8714 39.7387H73.9675L74.6259 36.0886H75.6972L76.2886 38.6113L77.7728 36.0886H78.8329H78.8217Z" fill="#1A1A1A"/>
<path d="M80.2614 36.7918L80.1275 37.5509H81.3438L81.2211 38.2206H80.0047L79.8596 39.0355H81.2322L81.1095 39.7387H78.833L79.4914 36.0886H81.7679L81.6451 36.7918H80.2725H80.2614Z" fill="#1A1A1A"/>
<path d="M85.0145 36.0886L84.8917 36.7918H83.8986L83.3741 39.7388H82.4702L82.9947 36.7918H82.0127L82.1354 36.0886H85.0145Z" fill="#1A1A1A"/>
<path d="M87.2469 39.0913H85.8631L85.5284 39.7387H84.5798L86.5773 36.0886H87.6263L88.3181 39.7387H87.3585L87.258 39.0913H87.2469ZM87.1464 38.4216L86.9344 37.0709L86.2202 38.4216H87.1464Z" fill="#1A1A1A"/>
<path d="M89.7458 39.069H90.9287L90.8059 39.7499H88.708L89.3664 36.0997H90.2703L89.7346 39.0801L89.7458 39.069Z" fill="#1A1A1A"/>
<path d="M92.6803 36.7918L92.5464 37.5509H93.7628L93.64 38.2206H92.4237L92.2786 39.0355H93.6512L93.5284 39.7388H91.252L91.9103 36.0886H94.1868L94.064 36.7918H92.6915H92.6803Z" fill="#1A1A1A"/>
<path d="M96.8204 39.7722C96.4187 39.7722 96.0839 39.6829 95.8384 39.5155C95.5929 39.3369 95.459 39.1025 95.459 38.7788C95.459 38.455 95.459 38.7006 95.459 38.6336H96.4075C96.4075 38.7676 96.4298 38.8681 96.5079 38.9462C96.5861 39.0243 96.6976 39.0578 96.8427 39.0578C96.9878 39.0578 97.0882 39.0243 97.1663 38.9685C97.2444 38.9127 97.2891 38.8234 97.2891 38.7229C97.2891 38.6225 97.2333 38.522 97.1329 38.455C97.0324 38.3881 96.8762 38.3099 96.6642 38.2206C96.4633 38.1425 96.2959 38.0644 96.162 37.9862C96.0393 37.9081 95.9277 37.8076 95.8272 37.6737C95.7268 37.5509 95.6822 37.3834 95.6822 37.1937C95.6822 36.9593 95.738 36.7472 95.8607 36.5686C95.9835 36.39 96.1509 36.256 96.374 36.1667C96.5972 36.0774 96.8427 36.0216 97.1217 36.0216C97.4007 36.0216 97.6015 36.0663 97.8024 36.1444C98.0033 36.2225 98.1483 36.3342 98.2599 36.4793C98.3715 36.6244 98.4273 36.803 98.4273 37.0039C98.4273 37.2048 98.4273 37.0932 98.4273 37.1155H97.4676C97.4676 37.1044 97.4676 37.082 97.4676 37.0486C97.4676 36.9481 97.4342 36.87 97.3672 36.8141C97.3002 36.7472 97.211 36.7248 97.0882 36.7248C96.9655 36.7248 96.8539 36.7583 96.7758 36.8141C96.6976 36.87 96.6642 36.9593 96.6642 37.0597C96.6642 37.1602 96.7088 37.2495 96.8092 37.3276C96.9097 37.3946 97.0659 37.4839 97.2668 37.5732C97.4788 37.6625 97.6462 37.7518 97.7801 37.8299C97.914 37.9081 98.0256 38.0197 98.126 38.1537C98.2264 38.2876 98.2711 38.4439 98.2711 38.6448C98.2711 38.8457 98.2153 39.0578 98.0925 39.2253C97.9809 39.3927 97.8136 39.5267 97.5904 39.6271C97.3672 39.7164 97.1105 39.7722 96.8204 39.7722Z" fill="#1A1A1A"/>
<path d="M99.7348 39.0132H101.331L101.197 39.7388H98.5742L98.697 39.0578L100.683 36.8142H99.0987L99.2326 36.0886H101.855L101.732 36.7695L99.7348 39.0132Z" fill="#1A1A1A"/>
<path d="M102.814 39.069H103.997L103.874 39.7499H101.776L102.435 36.0997H103.339L102.803 39.0801L102.814 39.069Z" fill="#1A1A1A"/>
<path d="M106.742 39.0913H105.358L105.024 39.7387H104.075L106.073 36.0886H107.122L107.813 39.7387H106.854L106.753 39.0913H106.742ZM106.642 38.4216L106.43 37.0709L105.716 38.4216H106.642Z" fill="#1A1A1A"/>
<path d="M108.405 37.9081C108.472 37.5509 108.605 37.2272 108.817 36.9481C109.029 36.669 109.286 36.4458 109.599 36.2895C109.911 36.1332 110.246 36.0551 110.603 36.0551C110.96 36.0551 111.406 36.1667 111.674 36.4011C111.953 36.6355 112.109 36.9369 112.143 37.3388H111.15C111.105 37.1937 111.016 37.082 110.893 37.0039C110.77 36.9258 110.625 36.8811 110.447 36.8811C110.168 36.8811 109.922 36.9816 109.721 37.1713C109.52 37.3611 109.387 37.6067 109.331 37.9304C109.308 38.0309 109.308 38.109 109.308 38.1871C109.308 38.4327 109.375 38.6225 109.52 38.7676C109.654 38.9127 109.844 38.9797 110.09 38.9797C110.335 38.9797 110.424 38.935 110.569 38.8569C110.726 38.7788 110.848 38.6671 110.949 38.5108H111.942C111.763 38.9015 111.496 39.2141 111.139 39.4485C110.781 39.6718 110.38 39.7834 109.945 39.7834C109.509 39.7834 109.353 39.7276 109.108 39.6048C108.862 39.482 108.684 39.3146 108.561 39.0913C108.438 38.8681 108.371 38.6113 108.371 38.3211C108.371 38.0309 108.382 38.0643 108.405 37.9416V37.9081Z" fill="#1A1A1A"/>
<path d="M116.139 36.0886L115.48 39.7388H114.577L114.844 38.2206H113.438L113.17 39.7388H112.267L112.925 36.0886H113.829L113.572 37.5286H114.978L115.235 36.0886H116.139Z" fill="#1A1A1A"/>
<path d="M117.565 36.7918L117.431 37.5509H118.648L118.525 38.2206H117.308L117.163 39.0355H118.536L118.413 39.7388H116.137L116.795 36.0886H119.072L118.949 36.7918H117.576H117.565Z" fill="#1A1A1A"/>
<path d="M122.331 36.0886L122.208 36.7918H121.215L120.691 39.7388H119.787L120.311 36.7918H119.329L119.452 36.0886H122.331Z" fill="#1A1A1A"/>
<path d="M125.455 39.7387H124.551L123.447 37.4839L123.034 39.7387H122.13L122.788 36.0886H123.692L124.797 38.3546L125.21 36.0886H126.114L125.455 39.7387Z" fill="#1A1A1A"/>
<path d="M127.542 36.7918L127.408 37.5509H128.625L128.502 38.2206H127.286L127.141 39.0355H128.513L128.39 39.7387H126.114L126.772 36.0886H129.049L128.926 36.7918H127.554H127.542Z" fill="#1A1A1A"/>
<defs>
<linearGradient id="paint0_linear_4858_2497" x1="279.25" y1="-46.0344" x2="-5.1653" y2="37.2578" gradientUnits="userSpaceOnUse">
<stop stop-color="#1A1A1A"/>
<stop offset="0.3" stop-color="#0A0A0A"/>
<stop offset="0.4" stop-color="#1A1A1A"/>
<stop offset="0.6" stop-color="#333333"/>
<stop offset="0.8" stop-color="#1A1A1A"/>
<stop offset="1" stop-color="#0A0A0A"/>
</linearGradient>
<linearGradient id="paint1_linear_4858_2497" x1="281.494" y1="-40.9332" x2="-2.90981" y2="42.3702" gradientUnits="userSpaceOnUse">
<stop stop-color="#1A1A1A"/>
<stop offset="0.3" stop-color="#0A0A0A"/>
<stop offset="0.4" stop-color="#1A1A1A"/>
<stop offset="0.6" stop-color="#333333"/>
<stop offset="0.8" stop-color="#1A1A1A"/>
<stop offset="1" stop-color="#0A0A0A"/>
</linearGradient>
<linearGradient id="paint2_linear_4858_2497" x1="282.353" y1="-38.0085" x2="-2.05108" y2="45.2948" gradientUnits="userSpaceOnUse">
<stop stop-color="#1A1A1A"/>
<stop offset="0.3" stop-color="#0A0A0A"/>
<stop offset="0.4" stop-color="#1A1A1A"/>
<stop offset="0.6" stop-color="#333333"/>
<stop offset="0.8" stop-color="#1A1A1A"/>
<stop offset="1" stop-color="#0A0A0A"/>
</linearGradient>
<linearGradient id="paint3_linear_4858_2497" x1="284.529" y1="-30.5631" x2="0.124946" y2="52.729" gradientUnits="userSpaceOnUse">
<stop stop-color="#1A1A1A"/>
<stop offset="0.3" stop-color="#0A0A0A"/>
<stop offset="0.4" stop-color="#1A1A1A"/>
<stop offset="0.6" stop-color="#333333"/>
<stop offset="0.8" stop-color="#1A1A1A"/>
<stop offset="1" stop-color="#0A0A0A"/>
</linearGradient>
<linearGradient id="paint4_linear_4858_2497" x1="284.563" y1="-30.4626" x2="0.159125" y2="52.8407" gradientUnits="userSpaceOnUse">
<stop stop-color="#1A1A1A"/>
<stop offset="0.3" stop-color="#0A0A0A"/>
<stop offset="0.4" stop-color="#1A1A1A"/>
<stop offset="0.6" stop-color="#333333"/>
<stop offset="0.8" stop-color="#1A1A1A"/>
<stop offset="1" stop-color="#0A0A0A"/>
</linearGradient>
<linearGradient id="paint5_linear_4858_2497" x1="287.563" y1="-20.2266" x2="3.14836" y2="63.0656" gradientUnits="userSpaceOnUse">
<stop stop-color="#1A1A1A"/>
<stop offset="0.3" stop-color="#0A0A0A"/>
<stop offset="0.4" stop-color="#1A1A1A"/>
<stop offset="0.6" stop-color="#333333"/>
<stop offset="0.8" stop-color="#1A1A1A"/>
<stop offset="1" stop-color="#0A0A0A"/>
</linearGradient>
<linearGradient id="paint6_linear_4858_2497" x1="278.112" y1="-52.4975" x2="-6.29164" y2="30.8058" gradientUnits="userSpaceOnUse">
<stop stop-color="#1A1A1A"/>
<stop offset="0.3" stop-color="#0A0A0A"/>
<stop offset="0.4" stop-color="#1A1A1A"/>
<stop offset="0.6" stop-color="#333333"/>
<stop offset="0.8" stop-color="#1A1A1A"/>
<stop offset="1" stop-color="#0A0A0A"/>
</linearGradient>
<linearGradient id="paint7_linear_4858_2497" x1="276.382" y1="-58.3914" x2="-8.02158" y2="24.912" gradientUnits="userSpaceOnUse">
<stop stop-color="#1A1A1A"/>
<stop offset="0.3" stop-color="#0A0A0A"/>
<stop offset="0.4" stop-color="#1A1A1A"/>
<stop offset="0.6" stop-color="#333333"/>
<stop offset="0.8" stop-color="#1A1A1A"/>
<stop offset="1" stop-color="#0A0A0A"/>
</linearGradient>
<linearGradient id="paint8_linear_4858_2497" x1="272.845" y1="-70.4916" x2="-11.5698" y2="12.8117" gradientUnits="userSpaceOnUse">
<stop stop-color="#1A1A1A"/>
<stop offset="0.3" stop-color="#0A0A0A"/>
<stop offset="0.4" stop-color="#1A1A1A"/>
<stop offset="0.6" stop-color="#333333"/>
<stop offset="0.8" stop-color="#1A1A1A"/>
<stop offset="1" stop-color="#0A0A0A"/>
</linearGradient>
<linearGradient id="paint9_linear_4858_2497" x1="277.008" y1="-56.2817" x2="-7.40677" y2="27.0217" gradientUnits="userSpaceOnUse">
<stop stop-color="#1A1A1A"/>
<stop offset="0.3" stop-color="#0A0A0A"/>
<stop offset="0.4" stop-color="#1A1A1A"/>
<stop offset="0.6" stop-color="#333333"/>
<stop offset="0.8" stop-color="#1A1A1A"/>
<stop offset="1" stop-color="#0A0A0A"/>
</linearGradient>
<linearGradient id="paint10_linear_4858_2497" x1="280.087" y1="-45.733" x2="-4.31646" y2="37.5703" gradientUnits="userSpaceOnUse">
<stop stop-color="#1A1A1A"/>
<stop offset="0.3" stop-color="#0A0A0A"/>
<stop offset="0.4" stop-color="#1A1A1A"/>
<stop offset="0.6" stop-color="#333333"/>
<stop offset="0.8" stop-color="#1A1A1A"/>
<stop offset="1" stop-color="#0A0A0A"/>
</linearGradient>
<linearGradient id="paint11_linear_4858_2497" x1="280.499" y1="-44.3265" x2="-3.90441" y2="38.9655" gradientUnits="userSpaceOnUse">
<stop stop-color="#1A1A1A"/>
<stop offset="0.3" stop-color="#0A0A0A"/>
<stop offset="0.4" stop-color="#1A1A1A"/>
<stop offset="0.6" stop-color="#333333"/>
<stop offset="0.8" stop-color="#1A1A1A"/>
<stop offset="1" stop-color="#0A0A0A"/>
</linearGradient>
</defs>
</svg>
